<mxfile host="Electron" agent="Mozilla/5.0 (Windows NT 10.0; Win64; x64) AppleWebKit/537.36 (KHTML, like Gecko) draw.io/25.0.2 Chrome/128.0.6613.186 Electron/32.2.5 Safari/537.36" version="25.0.2">
  <diagram id="C5RBs43oDa-KdzZeNtuy" name="Page-1">
    <mxGraphModel dx="1050" dy="717" grid="1" gridSize="10" guides="1" tooltips="1" connect="1" arrows="1" fold="1" page="1" pageScale="1" pageWidth="827" pageHeight="1169" math="0" shadow="0">
      <root>
        <mxCell id="WIyWlLk6GJQsqaUBKTNV-0" />
        <mxCell id="WIyWlLk6GJQsqaUBKTNV-1" parent="WIyWlLk6GJQsqaUBKTNV-0" />
        <mxCell id="haDAru7enVvrQFFQN8Qg-3" style="edgeStyle=orthogonalEdgeStyle;rounded=0;orthogonalLoop=1;jettySize=auto;html=1;exitX=0.5;exitY=1;exitDx=0;exitDy=0;entryX=0.5;entryY=0;entryDx=0;entryDy=0;" edge="1" parent="WIyWlLk6GJQsqaUBKTNV-1" source="haDAru7enVvrQFFQN8Qg-0" target="haDAru7enVvrQFFQN8Qg-2">
          <mxGeometry relative="1" as="geometry" />
        </mxCell>
        <mxCell id="haDAru7enVvrQFFQN8Qg-0" value="start" style="ellipse;whiteSpace=wrap;html=1;" vertex="1" parent="WIyWlLk6GJQsqaUBKTNV-1">
          <mxGeometry x="354" y="40" width="120" height="80" as="geometry" />
        </mxCell>
        <mxCell id="haDAru7enVvrQFFQN8Qg-1" value="end" style="ellipse;whiteSpace=wrap;html=1;" vertex="1" parent="WIyWlLk6GJQsqaUBKTNV-1">
          <mxGeometry x="354" y="680" width="120" height="80" as="geometry" />
        </mxCell>
        <mxCell id="haDAru7enVvrQFFQN8Qg-5" value="" style="edgeStyle=orthogonalEdgeStyle;rounded=0;orthogonalLoop=1;jettySize=auto;html=1;" edge="1" parent="WIyWlLk6GJQsqaUBKTNV-1" source="haDAru7enVvrQFFQN8Qg-2">
          <mxGeometry relative="1" as="geometry">
            <mxPoint x="414" y="250" as="targetPoint" />
          </mxGeometry>
        </mxCell>
        <mxCell id="haDAru7enVvrQFFQN8Qg-2" value="tạo biến: a,b,dấu phép toán,total" style="rounded=0;whiteSpace=wrap;html=1;" vertex="1" parent="WIyWlLk6GJQsqaUBKTNV-1">
          <mxGeometry x="346" y="160" width="136" height="60" as="geometry" />
        </mxCell>
        <mxCell id="haDAru7enVvrQFFQN8Qg-23" style="edgeStyle=orthogonalEdgeStyle;rounded=0;orthogonalLoop=1;jettySize=auto;html=1;exitX=0;exitY=0.5;exitDx=0;exitDy=0;entryX=0.5;entryY=0;entryDx=0;entryDy=0;" edge="1" parent="WIyWlLk6GJQsqaUBKTNV-1" source="haDAru7enVvrQFFQN8Qg-18" target="haDAru7enVvrQFFQN8Qg-19">
          <mxGeometry relative="1" as="geometry" />
        </mxCell>
        <mxCell id="haDAru7enVvrQFFQN8Qg-18" value="input a,b,dấu phép toán" style="shape=parallelogram;perimeter=parallelogramPerimeter;whiteSpace=wrap;html=1;fixedSize=1;" vertex="1" parent="WIyWlLk6GJQsqaUBKTNV-1">
          <mxGeometry x="354" y="250" width="120" height="60" as="geometry" />
        </mxCell>
        <mxCell id="haDAru7enVvrQFFQN8Qg-27" value="" style="edgeStyle=orthogonalEdgeStyle;rounded=0;orthogonalLoop=1;jettySize=auto;html=1;" edge="1" parent="WIyWlLk6GJQsqaUBKTNV-1" source="haDAru7enVvrQFFQN8Qg-19" target="haDAru7enVvrQFFQN8Qg-24">
          <mxGeometry relative="1" as="geometry" />
        </mxCell>
        <mxCell id="haDAru7enVvrQFFQN8Qg-37" value="" style="edgeStyle=orthogonalEdgeStyle;rounded=0;orthogonalLoop=1;jettySize=auto;html=1;" edge="1" parent="WIyWlLk6GJQsqaUBKTNV-1" source="haDAru7enVvrQFFQN8Qg-19" target="haDAru7enVvrQFFQN8Qg-36">
          <mxGeometry relative="1" as="geometry" />
        </mxCell>
        <mxCell id="haDAru7enVvrQFFQN8Qg-19" value="dấu phép toán == +" style="rhombus;whiteSpace=wrap;html=1;" vertex="1" parent="WIyWlLk6GJQsqaUBKTNV-1">
          <mxGeometry x="140" y="320" width="120" height="110" as="geometry" />
        </mxCell>
        <mxCell id="haDAru7enVvrQFFQN8Qg-28" value="" style="edgeStyle=orthogonalEdgeStyle;rounded=0;orthogonalLoop=1;jettySize=auto;html=1;" edge="1" parent="WIyWlLk6GJQsqaUBKTNV-1" source="haDAru7enVvrQFFQN8Qg-24" target="haDAru7enVvrQFFQN8Qg-25">
          <mxGeometry relative="1" as="geometry" />
        </mxCell>
        <mxCell id="haDAru7enVvrQFFQN8Qg-41" value="" style="edgeStyle=orthogonalEdgeStyle;rounded=0;orthogonalLoop=1;jettySize=auto;html=1;" edge="1" parent="WIyWlLk6GJQsqaUBKTNV-1" source="haDAru7enVvrQFFQN8Qg-24" target="haDAru7enVvrQFFQN8Qg-38">
          <mxGeometry relative="1" as="geometry" />
        </mxCell>
        <mxCell id="haDAru7enVvrQFFQN8Qg-24" value="dấu phép toán == -" style="rhombus;whiteSpace=wrap;html=1;" vertex="1" parent="WIyWlLk6GJQsqaUBKTNV-1">
          <mxGeometry x="290" y="320" width="120" height="110" as="geometry" />
        </mxCell>
        <mxCell id="haDAru7enVvrQFFQN8Qg-29" value="" style="edgeStyle=orthogonalEdgeStyle;rounded=0;orthogonalLoop=1;jettySize=auto;html=1;" edge="1" parent="WIyWlLk6GJQsqaUBKTNV-1" source="haDAru7enVvrQFFQN8Qg-25" target="haDAru7enVvrQFFQN8Qg-26">
          <mxGeometry relative="1" as="geometry" />
        </mxCell>
        <mxCell id="haDAru7enVvrQFFQN8Qg-42" value="" style="edgeStyle=orthogonalEdgeStyle;rounded=0;orthogonalLoop=1;jettySize=auto;html=1;" edge="1" parent="WIyWlLk6GJQsqaUBKTNV-1" source="haDAru7enVvrQFFQN8Qg-25" target="haDAru7enVvrQFFQN8Qg-39">
          <mxGeometry relative="1" as="geometry" />
        </mxCell>
        <mxCell id="haDAru7enVvrQFFQN8Qg-25" value="dấu phép toán == *" style="rhombus;whiteSpace=wrap;html=1;" vertex="1" parent="WIyWlLk6GJQsqaUBKTNV-1">
          <mxGeometry x="450" y="320" width="120" height="110" as="geometry" />
        </mxCell>
        <mxCell id="haDAru7enVvrQFFQN8Qg-43" value="" style="edgeStyle=orthogonalEdgeStyle;rounded=0;orthogonalLoop=1;jettySize=auto;html=1;" edge="1" parent="WIyWlLk6GJQsqaUBKTNV-1" source="haDAru7enVvrQFFQN8Qg-26" target="haDAru7enVvrQFFQN8Qg-40">
          <mxGeometry relative="1" as="geometry" />
        </mxCell>
        <mxCell id="haDAru7enVvrQFFQN8Qg-26" value="dấu phép toán == /, b!=0" style="rhombus;whiteSpace=wrap;html=1;" vertex="1" parent="WIyWlLk6GJQsqaUBKTNV-1">
          <mxGeometry x="600" y="320" width="120" height="110" as="geometry" />
        </mxCell>
        <mxCell id="haDAru7enVvrQFFQN8Qg-31" value="false" style="text;html=1;align=center;verticalAlign=middle;resizable=0;points=[];autosize=1;strokeColor=none;fillColor=none;" vertex="1" parent="WIyWlLk6GJQsqaUBKTNV-1">
          <mxGeometry x="560" y="350" width="50" height="30" as="geometry" />
        </mxCell>
        <mxCell id="haDAru7enVvrQFFQN8Qg-32" value="false" style="text;html=1;align=center;verticalAlign=middle;resizable=0;points=[];autosize=1;strokeColor=none;fillColor=none;" vertex="1" parent="WIyWlLk6GJQsqaUBKTNV-1">
          <mxGeometry x="400" y="350" width="50" height="30" as="geometry" />
        </mxCell>
        <mxCell id="haDAru7enVvrQFFQN8Qg-33" value="false" style="text;html=1;align=center;verticalAlign=middle;resizable=0;points=[];autosize=1;strokeColor=none;fillColor=none;" vertex="1" parent="WIyWlLk6GJQsqaUBKTNV-1">
          <mxGeometry x="250" y="350" width="50" height="30" as="geometry" />
        </mxCell>
        <mxCell id="haDAru7enVvrQFFQN8Qg-35" value="true" style="text;html=1;align=center;verticalAlign=middle;resizable=0;points=[];autosize=1;strokeColor=none;fillColor=none;" vertex="1" parent="WIyWlLk6GJQsqaUBKTNV-1">
          <mxGeometry x="660" y="430" width="40" height="30" as="geometry" />
        </mxCell>
        <mxCell id="haDAru7enVvrQFFQN8Qg-36" value="total=a+b" style="rounded=0;whiteSpace=wrap;html=1;" vertex="1" parent="WIyWlLk6GJQsqaUBKTNV-1">
          <mxGeometry x="132" y="470" width="136" height="60" as="geometry" />
        </mxCell>
        <mxCell id="haDAru7enVvrQFFQN8Qg-38" value="total=a-b" style="rounded=0;whiteSpace=wrap;html=1;" vertex="1" parent="WIyWlLk6GJQsqaUBKTNV-1">
          <mxGeometry x="282" y="470" width="136" height="60" as="geometry" />
        </mxCell>
        <mxCell id="haDAru7enVvrQFFQN8Qg-39" value="total=a*b" style="rounded=0;whiteSpace=wrap;html=1;" vertex="1" parent="WIyWlLk6GJQsqaUBKTNV-1">
          <mxGeometry x="442" y="470" width="136" height="60" as="geometry" />
        </mxCell>
        <mxCell id="haDAru7enVvrQFFQN8Qg-40" value="total=a/b" style="rounded=0;whiteSpace=wrap;html=1;" vertex="1" parent="WIyWlLk6GJQsqaUBKTNV-1">
          <mxGeometry x="592" y="470" width="136" height="60" as="geometry" />
        </mxCell>
        <mxCell id="haDAru7enVvrQFFQN8Qg-44" value="true" style="text;html=1;align=center;verticalAlign=middle;resizable=0;points=[];autosize=1;strokeColor=none;fillColor=none;" vertex="1" parent="WIyWlLk6GJQsqaUBKTNV-1">
          <mxGeometry x="200" y="430" width="40" height="30" as="geometry" />
        </mxCell>
        <mxCell id="haDAru7enVvrQFFQN8Qg-45" value="true" style="text;html=1;align=center;verticalAlign=middle;resizable=0;points=[];autosize=1;strokeColor=none;fillColor=none;" vertex="1" parent="WIyWlLk6GJQsqaUBKTNV-1">
          <mxGeometry x="346" y="430" width="40" height="30" as="geometry" />
        </mxCell>
        <mxCell id="haDAru7enVvrQFFQN8Qg-46" value="true" style="text;html=1;align=center;verticalAlign=middle;resizable=0;points=[];autosize=1;strokeColor=none;fillColor=none;" vertex="1" parent="WIyWlLk6GJQsqaUBKTNV-1">
          <mxGeometry x="510" y="430" width="40" height="30" as="geometry" />
        </mxCell>
        <mxCell id="haDAru7enVvrQFFQN8Qg-47" value="false" style="text;html=1;align=center;verticalAlign=middle;resizable=0;points=[];autosize=1;strokeColor=none;fillColor=none;" vertex="1" parent="WIyWlLk6GJQsqaUBKTNV-1">
          <mxGeometry x="720" y="350" width="50" height="30" as="geometry" />
        </mxCell>
        <mxCell id="haDAru7enVvrQFFQN8Qg-53" style="edgeStyle=orthogonalEdgeStyle;rounded=0;orthogonalLoop=1;jettySize=auto;html=1;exitX=0.5;exitY=1;exitDx=0;exitDy=0;exitPerimeter=0;entryX=1;entryY=0.5;entryDx=0;entryDy=0;" edge="1" parent="WIyWlLk6GJQsqaUBKTNV-1" source="haDAru7enVvrQFFQN8Qg-48" target="haDAru7enVvrQFFQN8Qg-1">
          <mxGeometry relative="1" as="geometry" />
        </mxCell>
        <mxCell id="haDAru7enVvrQFFQN8Qg-48" value="không hợp lệ mời nhập lại" style="strokeWidth=2;html=1;shape=mxgraph.flowchart.display;whiteSpace=wrap;" vertex="1" parent="WIyWlLk6GJQsqaUBKTNV-1">
          <mxGeometry x="720" y="400" width="100" height="60" as="geometry" />
        </mxCell>
        <mxCell id="haDAru7enVvrQFFQN8Qg-52" style="edgeStyle=orthogonalEdgeStyle;rounded=0;orthogonalLoop=1;jettySize=auto;html=1;exitX=1;exitY=0.5;exitDx=0;exitDy=0;entryX=0.5;entryY=0;entryDx=0;entryDy=0;entryPerimeter=0;" edge="1" parent="WIyWlLk6GJQsqaUBKTNV-1" source="haDAru7enVvrQFFQN8Qg-26" target="haDAru7enVvrQFFQN8Qg-48">
          <mxGeometry relative="1" as="geometry" />
        </mxCell>
        <mxCell id="haDAru7enVvrQFFQN8Qg-59" style="edgeStyle=orthogonalEdgeStyle;rounded=0;orthogonalLoop=1;jettySize=auto;html=1;exitX=0.5;exitY=1;exitDx=0;exitDy=0;exitPerimeter=0;entryX=0.5;entryY=0;entryDx=0;entryDy=0;" edge="1" parent="WIyWlLk6GJQsqaUBKTNV-1" source="haDAru7enVvrQFFQN8Qg-54" target="haDAru7enVvrQFFQN8Qg-1">
          <mxGeometry relative="1" as="geometry" />
        </mxCell>
        <mxCell id="haDAru7enVvrQFFQN8Qg-54" value="total" style="strokeWidth=2;html=1;shape=mxgraph.flowchart.display;whiteSpace=wrap;" vertex="1" parent="WIyWlLk6GJQsqaUBKTNV-1">
          <mxGeometry x="364" y="590" width="100" height="60" as="geometry" />
        </mxCell>
        <mxCell id="haDAru7enVvrQFFQN8Qg-55" style="edgeStyle=orthogonalEdgeStyle;rounded=0;orthogonalLoop=1;jettySize=auto;html=1;exitX=0.5;exitY=1;exitDx=0;exitDy=0;entryX=0;entryY=0.5;entryDx=0;entryDy=0;entryPerimeter=0;" edge="1" parent="WIyWlLk6GJQsqaUBKTNV-1" source="haDAru7enVvrQFFQN8Qg-36" target="haDAru7enVvrQFFQN8Qg-54">
          <mxGeometry relative="1" as="geometry" />
        </mxCell>
        <mxCell id="haDAru7enVvrQFFQN8Qg-56" style="edgeStyle=orthogonalEdgeStyle;rounded=0;orthogonalLoop=1;jettySize=auto;html=1;exitX=0.5;exitY=1;exitDx=0;exitDy=0;entryX=0.2;entryY=0.14;entryDx=0;entryDy=0;entryPerimeter=0;" edge="1" parent="WIyWlLk6GJQsqaUBKTNV-1" source="haDAru7enVvrQFFQN8Qg-38" target="haDAru7enVvrQFFQN8Qg-54">
          <mxGeometry relative="1" as="geometry" />
        </mxCell>
        <mxCell id="haDAru7enVvrQFFQN8Qg-57" style="edgeStyle=orthogonalEdgeStyle;rounded=0;orthogonalLoop=1;jettySize=auto;html=1;exitX=0.5;exitY=1;exitDx=0;exitDy=0;entryX=0.92;entryY=0.14;entryDx=0;entryDy=0;entryPerimeter=0;" edge="1" parent="WIyWlLk6GJQsqaUBKTNV-1" source="haDAru7enVvrQFFQN8Qg-39" target="haDAru7enVvrQFFQN8Qg-54">
          <mxGeometry relative="1" as="geometry" />
        </mxCell>
        <mxCell id="haDAru7enVvrQFFQN8Qg-58" style="edgeStyle=orthogonalEdgeStyle;rounded=0;orthogonalLoop=1;jettySize=auto;html=1;exitX=0.5;exitY=1;exitDx=0;exitDy=0;entryX=1;entryY=0.5;entryDx=0;entryDy=0;entryPerimeter=0;" edge="1" parent="WIyWlLk6GJQsqaUBKTNV-1" source="haDAru7enVvrQFFQN8Qg-40" target="haDAru7enVvrQFFQN8Qg-54">
          <mxGeometry relative="1" as="geometry" />
        </mxCell>
      </root>
    </mxGraphModel>
  </diagram>
</mxfile>
